<svg width="117" height="18" viewBox="0 0 117 18" fill="none" xmlns="http://www.w3.org/2000/svg">
<path fill-rule="evenodd" clip-rule="evenodd" d="M13.0396 13.6164C13.0396 13.6888 13.0233 13.7604 12.9917 13.8258C12.9601 13.8913 12.914 13.9489 12.8569 13.9945C12.7997 14.0401 12.733 14.0726 12.6615 14.0895C12.59 14.1064 12.5155 14.1074 12.4436 14.0923C12.3609 14.0748 12.2839 14.0374 12.2194 13.9836C12.1548 13.9297 12.1048 13.8609 12.0737 13.7834L8.01509 3.12174C7.68867 2.26098 7.06583 1.54053 6.25531 1.08617C5.44478 0.631809 4.49806 0.472398 3.58041 0.635767C2.66277 0.799136 1.8325 1.27491 1.23455 1.98002C0.636607 2.68513 0.308969 3.57479 0.308838 4.49369V17.5677H3.79206V4.49115C3.79209 4.41888 3.80848 4.34752 3.84003 4.28228C3.87158 4.21703 3.9175 4.15954 3.97444 4.114C4.03134 4.06784 4.09811 4.03498 4.16974 4.01788C4.24136 4.00079 4.31599 3.99989 4.38801 4.01528C4.46994 4.03241 4.54613 4.06972 4.60946 4.12372C4.6728 4.17773 4.72122 4.24666 4.75021 4.32409L8.81654 14.9883C9.1454 15.8463 9.76886 16.5636 10.5786 17.0157C11.3884 17.4677 12.3333 17.626 13.2491 17.4629C14.165 17.2999 14.9939 16.8258 15.592 16.1231C16.19 15.4204 16.5194 14.5335 16.5228 13.6164V0.567688H13.0396V13.6164ZM19.0709 5.67832V5.65301C19.0749 4.30378 19.6214 3.01111 20.5905 2.058C21.5596 1.1049 22.8725 0.569021 24.2418 0.567688H33.5278V3.99503H24.2418C23.7957 3.9957 23.3682 4.17059 23.0528 4.48138C22.7374 4.79216 22.5599 5.21349 22.5592 5.65301V5.68845C22.5592 6.1284 22.7364 6.55038 23.0519 6.86171C23.3673 7.17304 23.7953 7.34829 24.2418 7.34896H31.4651V10.7839H24.2418C23.8066 10.8006 23.3948 10.9828 23.093 11.2921C22.7911 11.6015 22.6224 12.014 22.6224 12.4431C22.6224 12.8723 22.7911 13.2848 23.093 13.5941C23.3948 13.9035 23.8066 14.0856 24.2418 14.1024H33.5278V17.55H24.2418C23.2416 17.5544 22.2616 17.2727 21.4208 16.7389C20.58 16.2052 19.9145 15.4423 19.5051 14.5431C19.0958 13.6438 18.9601 12.6468 19.1147 11.6731C19.2692 10.6993 19.7073 9.79071 20.3758 9.05756C19.5335 8.12783 19.0689 6.92461 19.0709 5.67832ZM41.0529 0.567688H46.0337C49.5786 0.590469 52.3682 4.38231 52.3682 9.06769C52.3682 13.7531 49.6068 17.4867 46.0799 17.55H41.0092C37.4823 17.474 34.7209 13.7809 34.7209 9.05503C34.7209 4.32915 37.5054 0.590469 41.0529 0.567688ZM41.0632 14.1024H46.026C47.3797 14.0669 48.8824 12.0116 48.8824 9.05503C48.8824 6.09851 47.3694 4.02287 46.008 4.00515H41.0811C39.7197 4.02287 38.2067 6.11876 38.2067 9.05503C38.2067 11.9913 39.7094 14.0669 41.0632 14.1024ZM64.6768 8.61965C66.6728 7.99695 67.4254 6.59463 67.4254 4.87843C67.4254 2.81798 66.5264 0.658805 61.8307 0.658805H55.8455V17.4437H62.6784C66.8885 17.4437 68.4221 15.573 68.4221 12.8874C68.4247 10.6573 67.1351 9.05249 64.6768 8.61965ZM57.0117 1.73966H61.9283C65.6992 1.73966 66.2952 3.29639 66.2952 4.99993C66.2952 6.70348 65.4423 8.21211 61.9283 8.21211H57.0117V1.73966ZM62.853 16.3628H57.0117V9.21956H62.853C65.9175 9.21956 67.3047 10.6345 67.3047 12.7912C67.3047 14.9478 66.1847 16.3628 62.853 16.3628ZM76.6709 0.658805L69.5683 17.4437H70.8321L72.9976 12.2875H80.917L83.0825 17.4437H84.3463L77.2566 0.658805H76.6709ZM73.4368 11.2218L76.9637 2.84076L80.4932 11.2218H73.4368ZM87.3028 0.658805L98.1789 15.044V0.658805H99.3477V17.4437H98.7646L87.8628 3.05845V17.4437H86.6966V0.658805H87.3028ZM112.512 11.6875C111.392 9.96122 110.809 9.15627 109.738 8.81202C110.591 8.42727 111.148 7.6122 112.171 6.10103L115.767 0.658805H114.405L111.176 5.62262L111.121 5.70694C109.826 7.66735 109.37 8.35639 107.357 8.35639H104.338V0.658805H103.172V17.4437H104.338V9.43471H107.696C109.705 9.43471 110.16 10.1217 111.427 12.0347L111.516 12.1685L114.971 17.4437H116.309L112.512 11.6875Z" fill="white"/>
</svg>
