<svg width="22" height="20" viewBox="0 0 22 20" fill="none" xmlns="http://www.w3.org/2000/svg">
<path d="M19.1285 4.07H15.9274V2.85C15.9274 1.28 14.6468 0 13.076 0H8.93394C7.36316 0 6.08253 1.28 6.08253 2.85V4.07H2.88143C1.29064 4.07 0 5.37 0 6.96V17.11C0 18.7 1.29064 20 2.88143 20H19.1185C20.7093 20 21.9999 18.7 21.9999 17.11V6.96C22.0099 5.37 20.7193 4.07 19.1285 4.07ZM7.78337 2.85C7.78337 2.22 8.30363 1.7 8.93394 1.7H13.066C13.6963 1.7 14.2166 2.22 14.2166 2.85V4.07H7.78337V2.85ZM20.3091 17.11C20.3091 17.76 19.7788 18.3 19.1285 18.3H2.88143C2.23111 18.3 1.70085 17.77 1.70085 17.11V6.96C1.70085 6.31 2.23111 5.77 2.88143 5.77H6.08253H15.9174H19.1185C19.7688 5.77 20.2991 6.3 20.2991 6.96V17.11H20.3091Z" fill="#3CCBDA"/>
</svg>
