<svg width="21" height="20" viewBox="0 0 21 20" fill="none" xmlns="http://www.w3.org/2000/svg">
<path d="M20.26 20H10.74C10.33 20 9.99999 19.6202 9.99999 19.1504C9.99999 18.6807 10.33 18.3008 10.74 18.3008H20.26C20.67 18.3008 21 18.6807 21 19.1504C21 19.6202 20.67 20 20.26 20ZM2.03999 19.95L5.74999 19.1005C5.90999 19.0605 6.04999 18.9905 6.15999 18.8706L20.16 4.88756C21.28 3.76812 21.28 1.94903 20.16 0.83958C19.04 -0.27986 17.22 -0.27986 16.1 0.83958L2.09999 14.8226C1.98999 14.9325 1.90999 15.0825 1.86999 15.2324L1.01999 18.9305C0.949988 19.2104 1.03999 19.5102 1.24999 19.7201C1.40999 19.8801 1.62999 19.97 1.84999 19.97C1.90999 19.98 1.97999 19.97 2.03999 19.95ZM17.3 2.04898C17.74 1.6092 18.51 1.6092 18.96 2.04898C19.18 2.26887 19.3 2.55872 19.3 2.87856C19.3 3.18841 19.18 3.48826 18.96 3.70815L5.12999 17.5112L2.97999 18.001L3.46999 15.8521L17.3 2.04898Z" fill="#3CCBDA"/>
</svg>
