<svg width="24" height="24" viewBox="0 0 24 24" fill="none" xmlns="http://www.w3.org/2000/svg">
<path d="M2.42995 8.74L11.58 13.89C11.71 13.96 11.86 14 12 14C12.14 14 12.29 13.96 12.42 13.89L21.57 8.74C21.84 8.59 22 8.31 22 8C22 7.69 21.83 7.41 21.57 7.26L12.42 2.11C12.16 1.96 11.85 1.96 11.59 2.11L2.42995 7.26C2.16995 7.41 1.99995 7.69 1.99995 8C1.99995 8.31 2.16995 8.59 2.42995 8.74ZM12 3.83L19.42 8L12 12.17L4.57995 8L12 3.83ZM21.8899 11.58C22.1199 11.99 21.97 12.51 21.57 12.74L12.42 17.89C12.29 17.96 12.14 18 12 18C11.86 18 11.71 17.96 11.58 17.89L2.42995 12.74C2.01995 12.51 1.87995 11.99 2.10995 11.58C2.33995 11.17 2.85995 11.03 3.26995 11.26L12 16.17L20.7299 11.25C21.1399 11.03 21.6599 11.17 21.8899 11.58ZM21.8899 15.58C22.1199 15.99 21.97 16.51 21.57 16.74L12.42 21.89C12.29 21.96 12.14 22 12 22C11.86 22 11.71 21.96 11.58 21.89L2.42995 16.74C2.01995 16.51 1.87995 15.99 2.10995 15.58C2.33995 15.17 2.85995 15.03 3.26995 15.26L12 20.17L20.7299 15.25C21.1399 15.03 21.6599 15.17 21.8899 15.58Z" fill="#3CCBDA"/>
</svg>
