<svg width="24" height="24" viewBox="0 0 24 24" fill="none" xmlns="http://www.w3.org/2000/svg">
<path d="M23 21.14C23 21.61 22.6202 22 22.1404 22H4.84808C2.72914 22 1 20.27 1 18.15V2.86C1 2.38 1.37981 2 1.85957 2C2.33933 2 2.71914 2.38 2.71914 2.86V18.15C2.71914 19.33 3.67866 20.29 4.85807 20.29H22.1634C22.6232 20.29 23 20.67 23 21.14ZM6.35957 18.32C6.82934 18.32 7.21914 17.94 7.21914 17.46V13.93C7.21914 13.46 6.83933 13.07 6.35957 13.07C5.8898 13.07 5.5 13.45 5.5 13.93V17.46C5.5 17.94 5.8898 18.32 6.35957 18.32ZM10.0787 18.32C10.5585 18.32 10.9383 17.93 10.9383 17.46L10.8683 7.47C10.8583 7 10.4785 6.62 10.0087 6.62C10.0087 6.62 10.0087 6.62 9.99875 6.62C9.52899 6.62 9.14918 7.01 9.14918 7.48L9.21914 17.47C9.21914 17.94 9.60895 18.32 10.0787 18.32ZM13.7979 18.32C14.2676 18.32 14.6574 17.94 14.6574 17.46V10.92C14.6574 10.45 14.2776 10.06 13.7979 10.06C13.3281 10.06 12.9383 10.44 12.9383 10.92V17.47C12.9383 17.94 13.3181 18.32 13.7979 18.32ZM17.5635 18.32C18.0332 18.32 18.423 17.94 18.423 17.46V4.87C18.423 4.4 18.0432 4.01 17.5635 4.01C17.0937 4.01 16.7039 4.39 16.7039 4.87V17.47C16.7139 17.94 17.0937 18.32 17.5635 18.32Z" fill="#3CCBDA"/>
</svg>
