<svg width="18" height="22" viewBox="0 0 18 22" fill="none" xmlns="http://www.w3.org/2000/svg">
<path fill-rule="evenodd" clip-rule="evenodd" d="M13.5 9.5H15.11C16.71 9.5 18 10.81 18 12.41V19.09C18 20.69 16.7 22 15.11 22H2.89C1.29 22 0 20.69 0 19.09V12.41C0 10.81 1.29 9.5 2.89 9.5H4.5V4.5C4.5 2.02 6.52 0 9 0C11.48 0 13.5 2.02 13.5 4.5V9.5ZM9 1.7C7.46 1.7 6.2 2.96 6.2 4.5V9.3H11.8V4.5C11.8 2.96 10.54 1.7 9 1.7ZM15.11 20.3C15.77 20.3 16.3 19.76 16.3 19.09V12.41C16.3 11.74 15.77 11.2 15.11 11.2H2.89C2.23 11.2 1.7 11.74 1.7 12.41V19.09C1.7 19.76 2.23 20.3 2.89 20.3H15.11ZM9 14C8.17157 14 7.5 14.6716 7.5 15.5C7.5 16.3284 8.17157 17 9 17C9.82843 17 10.5 16.3284 10.5 15.5C10.5 14.6716 9.82843 14 9 14Z" fill="#3CCBDA"/>
</svg>
