<svg width="24" height="24" viewBox="0 0 24 24" fill="none" xmlns="http://www.w3.org/2000/svg">
<path opacity="0.5" d="M24 12C24 17.51 19.6 22 14.19 22C11.77 22 9.45 21.1 7.65 19.46C7.3 19.14 7.28 18.61 7.59 18.26C7.91 17.91 8.44 17.89 8.79 18.2C10.28 19.55 12.19 20.3 14.18 20.3C18.65 20.3 22.29 16.58 22.29 12C22.29 7.42 18.65 3.7 14.18 3.7C9.71 3.7 6.08 7.42 6.08 12H9.79L5.39 16.49L1 12H4.38C4.38 6.49 8.78 2 14.19 2C19.6 2 24 6.49 24 12ZM13.51 6.45C13.04 6.45 12.66 6.83 12.66 7.3V13.23L17.87 15.71C17.99 15.77 18.11 15.79 18.23 15.79C18.55 15.79 18.85 15.61 19 15.3C19.2 14.88 19.02 14.37 18.6 14.17L14.36 12.16V7.3C14.36 6.83 13.98 6.45 13.51 6.45Z" fill="#3CCBDA"/>
</svg>
