<svg width="117" height="18" viewBox="0 0 117 18" fill="none" xmlns="http://www.w3.org/2000/svg">
<path fill-rule="evenodd" clip-rule="evenodd" d="M13.0396 13.6164C13.0396 13.6889 13.0233 13.7605 12.9917 13.8259C12.9601 13.8913 12.914 13.9489 12.8569 13.9946C12.7997 14.0402 12.733 14.0726 12.6615 14.0896C12.59 14.1065 12.5155 14.1074 12.4436 14.0923C12.3609 14.0748 12.2839 14.0375 12.2194 13.9836C12.1548 13.9297 12.1048 13.861 12.0737 13.7835L8.01509 3.1218C7.68867 2.26104 7.06583 1.54059 6.25531 1.08623C5.44478 0.63187 4.49806 0.472459 3.58041 0.635828C2.66277 0.799197 1.8325 1.27497 1.23455 1.98008C0.636607 2.68519 0.308969 3.57485 0.308838 4.49375V17.5677H3.79206V4.49122C3.79209 4.41894 3.80848 4.34758 3.84003 4.28234C3.87158 4.21709 3.9175 4.1596 3.97444 4.11406C4.03134 4.0679 4.09811 4.03504 4.16974 4.01794C4.24136 4.00085 4.31599 3.99996 4.38801 4.01534C4.46994 4.03247 4.54613 4.06978 4.60946 4.12379C4.6728 4.17779 4.72122 4.24672 4.75021 4.32415L8.81654 14.9884C9.1454 15.8463 9.76886 16.5636 10.5786 17.0157C11.3884 17.4678 12.3333 17.626 13.2491 17.463C14.165 17.2999 14.9939 16.8259 15.592 16.1232C16.19 15.4205 16.5194 14.5335 16.5228 13.6164V0.567749H13.0396V13.6164ZM19.0709 5.67838V5.65307C19.0749 4.30384 19.6214 3.01117 20.5905 2.05807C21.5596 1.10496 22.8725 0.569082 24.2418 0.567749H33.5278V3.99509H24.2418C23.7957 3.99576 23.3682 4.17065 23.0528 4.48144C22.7374 4.79222 22.5599 5.21355 22.5592 5.65307V5.68851C22.5592 6.12846 22.7364 6.55044 23.0519 6.86177C23.3673 7.17311 23.7953 7.34835 24.2418 7.34902H31.4651V10.7839H24.2418C23.8066 10.8007 23.3948 10.9828 23.093 11.2922C22.7911 11.6015 22.6224 12.014 22.6224 12.4432C22.6224 12.8724 22.7911 13.2849 23.093 13.5942C23.3948 13.9035 23.8066 14.0857 24.2418 14.1024H33.5278V17.55H24.2418C23.2416 17.5545 22.2616 17.2727 21.4208 16.739C20.58 16.2052 19.9145 15.4424 19.5051 14.5431C19.0958 13.6439 18.9601 12.6469 19.1147 11.6731C19.2692 10.6994 19.7073 9.79077 20.3758 9.05762C19.5335 8.12789 19.0689 6.92468 19.0709 5.67838ZM41.0529 0.567749H46.0337C49.5786 0.59053 52.3682 4.38237 52.3682 9.06775C52.3682 13.7531 49.6068 17.4867 46.0799 17.55H41.0092C37.4823 17.4741 34.7209 13.781 34.7209 9.05509C34.7209 4.32921 37.5054 0.59053 41.0529 0.567749ZM41.0632 14.1024H46.026C47.3797 14.067 48.8824 12.0116 48.8824 9.05509C48.8824 6.09857 47.3694 4.02293 46.008 4.00521H41.0811C39.7197 4.02293 38.2067 6.11882 38.2067 9.05509C38.2067 11.9914 39.7094 14.067 41.0632 14.1024ZM64.6768 8.61971C66.6728 7.99701 67.4254 6.59469 67.4254 4.87849C67.4254 2.81804 66.5264 0.658866 61.8307 0.658866H55.8455V17.4437H62.6784C66.8885 17.4437 68.4221 15.5731 68.4221 12.8874C68.4247 10.6574 67.1351 9.05255 64.6768 8.61971ZM57.0117 1.73972H61.9283C65.6992 1.73972 66.2952 3.29645 66.2952 4.99999C66.2952 6.70354 65.4423 8.21217 61.9283 8.21217H57.0117V1.73972ZM62.853 16.3629H57.0117V9.21962H62.853C65.9175 9.21962 67.3047 10.6346 67.3047 12.7912C67.3047 14.9479 66.1847 16.3629 62.853 16.3629ZM76.6709 0.658866L69.5683 17.4437H70.8321L72.9976 12.2875H80.917L83.0825 17.4437H84.3463L77.2566 0.658866H76.6709ZM73.4368 11.2219L76.9637 2.84082L80.4932 11.2219H73.4368ZM87.3028 0.658866L98.1789 15.0441V0.658866H99.3477V17.4437H98.7646L87.8628 3.05851V17.4437H86.6966V0.658866H87.3028ZM112.512 11.6876C111.392 9.96128 110.809 9.15634 109.738 8.81208C110.591 8.42733 111.148 7.61226 112.171 6.10109L115.767 0.658866H114.405L111.176 5.62268L111.121 5.70701C109.826 7.66742 109.37 8.35645 107.357 8.35645H104.338V0.658866H103.172V17.4437H104.338V9.43477H107.696C109.705 9.43477 110.16 10.1217 111.427 12.0348L111.516 12.1685L114.971 17.4437H116.309L112.512 11.6876Z" fill="#09171B"/>
</svg>
